<svg width="32" height="32" viewBox="0 0 32 32" fill="none" xmlns="http://www.w3.org/2000/svg">
<path d="M16 29.3334C12.4638 29.3334 9.0724 27.9287 6.57191 25.4282C4.07143 22.9277 2.66667 19.5363 2.66667 16.0001C2.66667 12.4639 4.07143 9.07248 6.57191 6.57199C9.0724 4.07151 12.4638 2.66675 16 2.66675C19.5362 2.66675 22.9276 3.93103 25.4281 6.18147C27.9286 8.4319 29.3333 11.4842 29.3333 14.6667C29.3333 16.4349 28.631 18.1306 27.3807 19.3808C26.1305 20.631 24.4348 21.3334 22.6667 21.3334H19.6667C19.2333 21.3334 18.8086 21.4541 18.44 21.6819C18.0714 21.9097 17.7735 22.2357 17.5797 22.6233C17.3859 23.0108 17.3039 23.4447 17.3428 23.8763C17.3817 24.3079 17.54 24.7201 17.8 25.0667L18.2 25.6001C18.46 25.9467 18.6183 26.359 18.6572 26.7905C18.6962 27.2221 18.6141 27.656 18.4203 28.0436C18.2265 28.4312 17.9287 28.7571 17.56 28.9849C17.1914 29.2127 16.7667 29.3334 16.3333 29.3334H16Z" stroke="white" stroke-width="2.66667" stroke-linecap="round" stroke-linejoin="round"/>
<path d="M18 9.33333C18.3682 9.33333 18.6667 9.03486 18.6667 8.66667C18.6667 8.29848 18.3682 8 18 8C17.6318 8 17.3333 8.29848 17.3333 8.66667C17.3333 9.03486 17.6318 9.33333 18 9.33333Z" fill="white" stroke="white" stroke-width="2.66667" stroke-linecap="round" stroke-linejoin="round"/>
<path d="M23.3333 14.6666C23.7015 14.6666 24 14.3681 24 13.9999C24 13.6317 23.7015 13.3333 23.3333 13.3333C22.9651 13.3333 22.6667 13.6317 22.6667 13.9999C22.6667 14.3681 22.9651 14.6666 23.3333 14.6666Z" fill="white" stroke="white" stroke-width="2.66667" stroke-linecap="round" stroke-linejoin="round"/>
<path d="M8.66667 17.3333C9.03486 17.3333 9.33333 17.0349 9.33333 16.6667C9.33333 16.2985 9.03486 16 8.66667 16C8.29848 16 8 16.2985 8 16.6667C8 17.0349 8.29848 17.3333 8.66667 17.3333Z" fill="white" stroke="white" stroke-width="2.66667" stroke-linecap="round" stroke-linejoin="round"/>
<path d="M11.3333 10.6666C11.7015 10.6666 12 10.3681 12 9.99992C12 9.63173 11.7015 9.33325 11.3333 9.33325C10.9651 9.33325 10.6667 9.63173 10.6667 9.99992C10.6667 10.3681 10.9651 10.6666 11.3333 10.6666Z" fill="white" stroke="white" stroke-width="2.66667" stroke-linecap="round" stroke-linejoin="round"/>
</svg>
