<svg width="48" height="48" viewBox="0 0 48 48" fill="none" xmlns="http://www.w3.org/2000/svg">
<path d="M24 44C18.6957 44 13.6086 41.8929 9.85786 38.1421C6.10714 34.3914 4 29.3043 4 24C4 18.6957 6.10714 13.6086 9.85786 9.85786C13.6086 6.10714 18.6957 4 24 4C29.3043 4 34.3914 5.89642 38.1421 9.27208C41.8929 12.6477 44 17.2261 44 22C44 24.6522 42.9464 27.1957 41.0711 29.0711C39.1957 30.9464 36.6522 32 34 32H29.5C28.85 32 28.2129 32.181 27.6599 32.5227C27.107 32.8644 26.6602 33.3534 26.3695 33.9348C26.0788 34.5161 25.9558 35.167 26.0141 35.8143C26.0725 36.4617 26.31 37.08 26.7 37.6L27.3 38.4C27.69 38.92 27.9275 39.5383 27.9859 40.1857C28.0442 40.833 27.9212 41.4839 27.6305 42.0652C27.3398 42.6466 26.893 43.1356 26.3401 43.4773C25.7871 43.819 25.15 44 24.5 44H24Z" stroke="white" stroke-width="4" stroke-linecap="round" stroke-linejoin="round"/>
<path d="M27 14C27.5523 14 28 13.5523 28 13C28 12.4477 27.5523 12 27 12C26.4477 12 26 12.4477 26 13C26 13.5523 26.4477 14 27 14Z" fill="white" stroke="white" stroke-width="4" stroke-linecap="round" stroke-linejoin="round"/>
<path d="M35 22C35.5523 22 36 21.5523 36 21C36 20.4477 35.5523 20 35 20C34.4477 20 34 20.4477 34 21C34 21.5523 34.4477 22 35 22Z" fill="white" stroke="white" stroke-width="4" stroke-linecap="round" stroke-linejoin="round"/>
<path d="M13 26C13.5523 26 14 25.5523 14 25C14 24.4477 13.5523 24 13 24C12.4477 24 12 24.4477 12 25C12 25.5523 12.4477 26 13 26Z" fill="white" stroke="white" stroke-width="4" stroke-linecap="round" stroke-linejoin="round"/>
<path d="M17 16C17.5523 16 18 15.5523 18 15C18 14.4477 17.5523 14 17 14C16.4477 14 16 14.4477 16 15C16 15.5523 16.4477 16 17 16Z" fill="white" stroke="white" stroke-width="4" stroke-linecap="round" stroke-linejoin="round"/>
</svg>
