<svg width="20" height="20" viewBox="0 0 20 20" fill="none" xmlns="http://www.w3.org/2000/svg">
<g clip-path="url(#clip0_3_220)">
<path d="M10 8.33337H10.0083" stroke="white" stroke-width="1.66667" stroke-linecap="round" stroke-linejoin="round"/>
<path d="M10 11.6666H10.0083" stroke="white" stroke-width="1.66667" stroke-linecap="round" stroke-linejoin="round"/>
<path d="M10 5H10.0083" stroke="white" stroke-width="1.66667" stroke-linecap="round" stroke-linejoin="round"/>
<path d="M13.3333 8.33337H13.3416" stroke="white" stroke-width="1.66667" stroke-linecap="round" stroke-linejoin="round"/>
<path d="M13.3333 11.6666H13.3416" stroke="white" stroke-width="1.66667" stroke-linecap="round" stroke-linejoin="round"/>
<path d="M13.3333 5H13.3416" stroke="white" stroke-width="1.66667" stroke-linecap="round" stroke-linejoin="round"/>
<path d="M6.66669 8.33337H6.67502" stroke="white" stroke-width="1.66667" stroke-linecap="round" stroke-linejoin="round"/>
<path d="M6.66669 11.6666H6.67502" stroke="white" stroke-width="1.66667" stroke-linecap="round" stroke-linejoin="round"/>
<path d="M6.66669 5H6.67502" stroke="white" stroke-width="1.66667" stroke-linecap="round" stroke-linejoin="round"/>
<path d="M7.5 18.3333V15.8333C7.5 15.6123 7.5878 15.4004 7.74408 15.2441C7.90036 15.0878 8.11232 15 8.33333 15H11.6667C11.8877 15 12.0996 15.0878 12.2559 15.2441C12.4122 15.4004 12.5 15.6123 12.5 15.8333V18.3333" stroke="white" stroke-width="1.66667" stroke-linecap="round" stroke-linejoin="round"/>
<path d="M15 1.66663H4.99998C4.07951 1.66663 3.33331 2.41282 3.33331 3.33329V16.6666C3.33331 17.5871 4.07951 18.3333 4.99998 18.3333H15C15.9205 18.3333 16.6666 17.5871 16.6666 16.6666V3.33329C16.6666 2.41282 15.9205 1.66663 15 1.66663Z" stroke="white" stroke-width="1.66667" stroke-linecap="round" stroke-linejoin="round"/>
</g>
<defs>
<clipPath id="clip0_3_220">
<rect width="20" height="20" fill="white"/>
</clipPath>
</defs>
</svg>
