<svg width="48" height="48" viewBox="0 0 48 48" fill="none" xmlns="http://www.w3.org/2000/svg">
<path d="M5.98399 32.6839C6.27807 33.4257 6.34354 34.2385 6.17199 35.0179L4.04199 41.5979C3.97336 41.9316 3.99111 42.2773 4.09354 42.6022C4.19598 42.9271 4.37972 43.2204 4.62733 43.4544C4.87494 43.6884 5.17821 43.8553 5.50839 43.9392C5.83857 44.0231 6.18471 44.0213 6.51399 43.9339L13.34 41.9379C14.0754 41.792 14.837 41.8558 15.538 42.1219C19.8088 44.1163 24.6467 44.5383 29.1983 43.3133C33.7499 42.0884 37.7225 39.2952 40.4154 35.4266C43.1082 31.558 44.3482 26.8627 43.9166 22.169C43.4849 17.4753 41.4094 13.0848 38.0561 9.77227C34.7029 6.45972 30.2874 4.43795 25.5888 4.06367C20.8901 3.68939 16.2103 4.98664 12.3749 7.72655C8.53949 10.4665 5.79505 14.473 4.62578 19.0392C3.4565 23.6053 3.93753 28.4378 5.98399 32.6839Z" stroke="white" stroke-width="4" stroke-linecap="round" stroke-linejoin="round"/>
</svg>
